<svg width="60" height="52" viewBox="0 0 60 52" fill="none" xmlns="http://www.w3.org/2000/svg">
<g clip-path="url(#clip0_136_410)">
<path d="M60.2718 25.99C60.2718 40.1917 48.6593 51.9602 34.6259 51.9602C20.6124 51.9602 9 40.1917 9 25.99C9 11.7683 20.5927 0 34.6064 0C48.6397 0 60.2718 11.7683 60.2718 25.99ZM18.7229 41.8273C22.5806 45.9961 28.4852 48.6291 34.6259 48.6291C40.7472 48.6291 46.6714 45.9961 50.5292 41.8273C47.7344 37.3393 41.554 34.6667 34.6259 34.6667C27.6389 34.6667 21.4784 37.3794 18.7229 41.8273ZM25.9462 20.5845C25.9462 26.1097 29.7449 30.2586 34.6259 30.2984C39.5071 30.3383 43.3058 26.1097 43.3058 20.5845C43.3058 15.3985 39.4678 11.0901 34.6259 11.0901C29.7842 11.0901 25.9069 15.3985 25.9462 20.5845Z" fill="#ED1B2F"/>
</g>
<defs>
<clipPath id="clip0_136_410">
<rect width="60" height="52" fill="white"/>
</clipPath>
</defs>
</svg>
