<svg width="35" height="32" viewBox="0 0 35 32" fill="none" xmlns="http://www.w3.org/2000/svg">
<path d="M17.0245 1.46352C17.1741 1.00287 17.8259 1.00287 17.9755 1.46353L21.3167 11.7467C21.3837 11.9527 21.5757 12.0922 21.7923 12.0922L32.6047 12.0922C33.089 12.0922 33.2904 12.712 32.8985 12.9967L24.1511 19.3521C23.9759 19.4794 23.9026 19.7051 23.9695 19.9111L27.3107 30.1943C27.4604 30.6549 26.9331 31.038 26.5413 30.7533L17.7939 24.3979C17.6186 24.2706 17.3814 24.2706 17.2061 24.3979L8.45871 30.7533C8.06685 31.038 7.53961 30.6549 7.68929 30.1943L11.0305 19.9111C11.0974 19.7051 11.0241 19.4794 10.8489 19.3521L2.10146 12.9967C1.7096 12.712 1.91099 12.0922 2.39535 12.0922L13.2077 12.0922C13.4243 12.0922 13.6163 11.9527 13.6833 11.7467L17.0245 1.46352Z" fill="#ED1B2F" stroke="#ED1B2F" stroke-width="2"/>
</svg>
