<svg width="19" height="22" viewBox="0 0 19 22" fill="none" xmlns="http://www.w3.org/2000/svg">
<g clip-path="url(#clip0_78_1053)">
<path d="M6.38872 18.4673C6.064 18.4673 5.85255 18.2654 5.83745 17.9587L5.52783 7.16553C5.52027 6.85138 5.73172 6.65691 6.07154 6.65691C6.37361 6.65691 6.60017 6.8439 6.60771 7.15805L6.93243 17.9512C6.93999 18.2579 6.72099 18.4673 6.38872 18.4673ZM9.36409 18.4673C9.03939 18.4673 8.80524 18.2579 8.80524 17.9512V7.16553C8.80524 6.85886 9.03939 6.65691 9.36409 6.65691C9.6888 6.65691 9.92288 6.85886 9.92288 7.16553V17.9512C9.92288 18.2579 9.6888 18.4673 9.36409 18.4673ZM12.3319 18.4673C11.9996 18.4673 11.7881 18.2579 11.7957 17.9587L12.1129 7.16553C12.1204 6.85138 12.347 6.65691 12.6566 6.65691C12.9889 6.65691 13.2003 6.85886 13.1927 7.173L12.8832 17.9587C12.868 18.2728 12.6566 18.4673 12.3319 18.4673ZM5.15779 4.27838H6.47934V2.22146C6.47934 1.62309 6.89468 1.23415 7.54412 1.23415H11.1614C11.8108 1.23415 12.2261 1.62309 12.2261 2.22146V4.27838H13.5477V2.14666C13.5477 0.815282 12.6793 0 11.2369 0H7.4686C6.03378 0 5.15779 0.815282 5.15779 2.14666V4.27838ZM0.626789 4.92911H18.0938C18.4412 4.92911 18.7206 4.64487 18.7206 4.30829C18.7206 3.96423 18.4412 3.68 18.0938 3.68H0.626789C0.294515 3.68 0 3.97171 0 4.30829C0 4.65236 0.294515 4.92911 0.626789 4.92911ZM4.93124 21.3619H13.8045C15.1033 21.3619 16.0171 20.4868 16.0851 19.2004L16.8025 4.73463H1.92567L2.64309 19.2078C2.71105 20.4943 3.6097 21.3619 4.93124 21.3619Z" fill="#ED1B2F"/>
</g>
<defs>
<clipPath id="clip0_78_1053">
<rect width="19" height="22" fill="white"/>
</clipPath>
</defs>
</svg>
