<svg width="60" height="52" viewBox="0 0 60 52" fill="none" xmlns="http://www.w3.org/2000/svg">
<path d="M59.8212 25.9901C59.8212 39.9653 48.4203 51.5456 34.6425 51.5456C31.0321 51.5456 27.5839 50.7481 24.4705 49.3022C25.1726 48.4644 25.7868 47.5497 26.2991 46.5735C28.8901 47.6669 31.7395 48.2677 34.6425 48.2677C40.6521 48.2677 46.4686 45.6769 50.2561 41.5746C47.512 37.1585 41.4444 34.5283 34.6425 34.5283C32.1865 34.5283 29.8343 34.8704 27.7062 35.5162C26.0761 28.5666 19.8763 23.36 12.5749 23.36C11.5584 23.36 10.5633 23.4613 9.60095 23.6609C10.7684 10.732 21.6372 0.415222 34.6233 0.415222C48.4011 0.415222 59.8212 11.9956 59.8212 25.9901ZM26.1208 20.671C26.1208 26.1079 29.8503 30.1906 34.6425 30.2298C39.4348 30.269 43.1643 26.1079 43.1643 20.671C43.1643 15.5679 39.3962 11.3283 34.6425 11.3283C29.8889 11.3283 26.0822 15.5679 26.1208 20.671Z" fill="#ED1B2F"/>
<path d="M25.0774 39.18C25.0774 46.1284 19.3575 51.8792 12.5749 51.8792C5.73435 51.8792 0.0725098 46.1676 0.0725098 39.18C0.0725098 32.2318 5.73435 26.481 12.5749 26.481C19.4349 26.481 25.0774 32.2121 25.0774 39.18ZM16.3237 33.2328L12.5363 37.0996L8.98074 33.5272C8.43967 32.9777 7.58942 32.9777 7.02904 33.5272C6.46866 34.0572 6.50731 34.9406 7.02904 35.5098L10.5459 39.1211L6.7392 42.9879C6.14015 43.5766 6.21744 44.4795 6.79715 45.0684C7.35755 45.6376 8.26576 45.7161 8.84547 45.1272L12.6522 41.2409L16.1885 44.8328C16.7295 45.3628 17.5992 45.3825 18.1596 44.8328C18.7005 44.2636 18.7005 43.3805 18.1596 42.8113L14.6426 39.2389L18.4301 35.3723C19.029 34.7639 18.9518 33.8608 18.3721 33.2916C17.8117 32.7224 16.9228 32.6244 16.3237 33.2328Z" fill="#ED1B2F"/>
</svg>
